# xmcd
#
# Track frame offsets: 
#        150
#        18772
#        42457
#        66390
#        86372
#        104470
#        124735
#        146902
#
# Disc length: 2225 seconds
#
# Revision: 4
# Processed by: cddbd v1.5.2PL0 Copyright (c) Steve Scherf et al.
# Submitted via: ExactAudioCopyFreeDBPlugin 1.0
#
DISCID=6d08af08
DTITLE=Teddy Pendergrass - Teddy Pendergrass
DYEAR=1977
DGENRE=Soul
TTITLE0=You Can't Hide from Yourself
TTITLE1=Somebody Told Me
TTITLE2=Be Sure
TTITLE3=And If I Had
TTITLE4=I Don't Love You Anymore
TTITLE5=The Whole Town's Laughing at Me
TTITLE6=Easy, Easy, Got to Take It Easy
TTITLE7=The More I Get, The More I Want
EXTD=
EXTT0=
EXTT1=
EXTT2=
EXTT3=
EXTT4=
EXTT5=
EXTT6=
EXTT7=
PLAYORDER=
